# xmcd CD database file
#
# Track frame offsets:
#	150
#	17612
#	34720
#	57405
#	78807
#	101965
#	113497
#	131100
#	152190
#	171307
#
# Disc length: 2628 seconds
#
# Revision: 0
# Processed by: cddbd v1.5PL3 Copyright (c) Steve Scherf et al.
# Submitted via: CDex 1.50
#
DISCID=7c0a420a
DTITLE=SION - Songs
DYEAR=2000
DGENRE=Rock
TTITLE0=Maybe
TTITLE1=Irish Lullaby
TTITLE2=Dance Me To The End Of Love
TTITLE3=A Song For You
TTITLE4=ガラスの乗客
TTITLE5=夢の島
TTITLE6=Morning Has Broken
TTITLE7=タクシー
TTITLE8=早く来い
TTITLE9=Over The Rainbow
EXTD=YEAR: 2000
EXTT0=
EXTT1=
EXTT2=
EXTT3=
EXTT4=
EXTT5=
EXTT6=
EXTT7=
EXTT8=
EXTT9=
PLAYORDER=
